<?xml version="1.0" standalone="no"?>
<!DOCTYPE svg PUBLIC "-//W3C//DTD SVG 20010904//EN"
 "http://www.w3.org/TR/2001/REC-SVG-20010904/DTD/svg10.dtd">
<svg version="1.0" xmlns="http://www.w3.org/2000/svg"
 width="200.000000pt" height="200.000000pt" viewBox="0 0 200.000000 200.000000"
 preserveAspectRatio="xMidYMid meet">

<g transform="translate(0.000000,200.000000) scale(0.100000,-0.100000)"
fill="#000000" stroke="none">
<path d="M215 862 c-31 -6 -64 -42 -71 -78 -18 -94 71 -169 137 -115 19 16 22
22 12 32 -10 10 -16 10 -25 1 -19 -19 -55 -14 -72 10 -22 31 -20 74 4 98 23
23 33 24 62 9 14 -8 23 -8 31 0 23 23 -30 52 -78 43z"/>
<path d="M760 835 c0 -32 -2 -34 -22 -26 -71 27 -119 -79 -62 -135 18 -19 31
-24 47 -19 12 4 32 6 45 6 21 -1 22 2 22 104 0 87 -3 105 -15 105 -10 0 -15
-11 -15 -35z m-10 -69 c15 -19 9 -56 -11 -69 -25 -16 -49 -1 -49 31 0 46 35
68 60 38z"/>
<path d="M1590 760 l0 -100 70 0 c56 0 70 3 70 15 0 11 -12 15 -50 15 -47 0
-50 2 -50 25 0 23 4 25 40 25 33 0 40 3 40 20 0 17 -7 20 -41 20 -36 0 -40 2
-37 23 2 18 10 23 46 25 28 2 42 8 42 18 0 11 -15 14 -65 14 l-65 0 0 -100z"/>
<path d="M1150 830 c0 -11 -4 -20 -10 -20 -5 0 -10 -7 -10 -15 0 -8 4 -15 9
-15 5 0 11 -23 13 -52 6 -53 27 -82 58 -76 24 5 25 38 1 38 -18 0 -21 6 -21
45 0 33 4 45 15 45 8 0 15 7 15 15 0 8 -7 15 -15 15 -8 0 -15 9 -15 20 0 13
-7 20 -20 20 -13 0 -20 -7 -20 -20z"/>
<path d="M363 810 c-50 -20 -60 -105 -17 -139 35 -27 59 -26 89 4 60 59 3 165
-72 135z m45 -39 c8 -5 12 -22 10 -42 -4 -44 -42 -54 -59 -16 -19 43 13 81 49
58z"/>
<path d="M556 813 c-3 -3 -19 -6 -36 -5 l-30 1 0 -75 c0 -59 3 -74 15 -74 11
0 15 11 15 41 0 46 14 79 35 79 21 0 35 -33 35 -79 0 -30 4 -41 15 -41 19 0
21 108 3 132 -15 18 -43 29 -52 21z"/>
<path d="M1039 808 c-67 -23 -58 -136 12 -153 33 -8 83 29 59 44 -9 7 -18 7
-24 1 -6 -6 -18 -10 -27 -10 -30 0 -40 58 -13 81 13 10 19 10 36 0 26 -16 48
0 29 22 -16 20 -41 25 -72 15z"/>
<path d="M1289 806 c-36 -18 -53 -59 -39 -100 20 -62 97 -71 126 -14 34 66
-26 145 -87 114z m49 -38 c30 -30 -2 -93 -36 -71 -21 13 -27 50 -12 69 15 17
32 18 48 2z"/>
<path d="M1826 813 c-3 -3 -19 -6 -36 -5 l-30 1 0 -75 c0 -59 3 -74 15 -74 11
0 15 11 15 41 0 46 14 79 35 79 21 0 35 -33 35 -79 0 -30 4 -41 15 -41 19 0
21 108 3 132 -15 18 -43 29 -52 21z"/>
<path d="M830 750 c0 -70 25 -107 63 -95 12 4 32 6 45 6 21 -1 22 3 22 74 0
60 -3 75 -15 75 -11 0 -15 -11 -15 -43 0 -50 -19 -83 -44 -74 -12 5 -16 20
-16 62 0 48 -2 55 -20 55 -18 0 -20 -7 -20 -60z"/>
<path d="M1420 734 c0 -59 3 -74 15 -74 11 0 15 12 15 44 0 42 18 76 41 76 5
0 9 6 9 14 0 11 -12 15 -40 14 l-40 0 0 -74z"/>
</g>
</svg>
