<?xml version="1.0" standalone="no"?>
<!DOCTYPE svg PUBLIC "-//W3C//DTD SVG 20010904//EN"
 "http://www.w3.org/TR/2001/REC-SVG-20010904/DTD/svg10.dtd">
<svg version="1.0" xmlns="http://www.w3.org/2000/svg"
 width="557.000000pt" height="167.000000pt" viewBox="0 0 557.000000 167.000000"
 preserveAspectRatio="xMidYMid meet">

<g transform="translate(0.000000,167.000000) scale(0.100000,-0.100000)"
fill="#000000" stroke="none">
<path d="M0 835 l0 -835 2785 0 2785 0 0 835 0 835 -2785 0 -2785 0 0 -835z
m1588 3 l-3 -783 -765 0 -765 0 -3 770 c-1 424 0 776 3 783 3 9 167 12 770 12
l765 0 -2 -782z m579 107 c48 -32 21 -64 -38 -45 -33 11 -42 11 -64 -4 -35
-23 -35 -79 0 -102 24 -15 39 -15 91 1 31 10 41 -23 14 -49 -15 -16 -33 -21
-71 -21 -46 0 -54 4 -85 37 -26 29 -34 46 -34 75 0 101 105 161 187 108z m207
11 c67 -28 97 -111 62 -174 -59 -108 -226 -61 -226 65 0 40 34 90 72 107 43
19 52 19 92 2z m913 -11 c47 -31 17 -67 -38 -45 -62 26 -120 -37 -81 -89 22
-30 56 -38 89 -20 20 11 26 10 39 -2 13 -14 13 -18 -3 -38 -41 -49 -147 -31
-179 32 -59 113 67 231 173 162z m370 14 c15 -6 38 -20 51 -31 81 -76 11 -220
-99 -205 -121 16 -147 183 -36 231 40 18 49 19 84 5z m-1100 -39 c51 -80 52
-81 53 -23 0 43 3 53 20 58 11 3 24 3 30 0 6 -3 10 -51 10 -109 0 -79 -3 -106
-15 -116 -22 -19 -42 -6 -76 50 -17 27 -35 48 -40 44 -5 -3 -9 -25 -9 -49 0
-42 -11 -57 -37 -48 -14 5 -19 214 -6 227 16 15 48 -1 70 -34z m284 23 c66
-39 75 -139 18 -187 -35 -30 -91 -43 -128 -30 -25 9 -26 12 -29 109 -1 54 0
105 2 112 8 19 102 17 137 -4z m129 -63 c5 -80 13 -100 36 -100 11 0 14 17 14
79 0 82 13 110 45 97 12 -4 15 -24 15 -96 0 -83 -2 -93 -25 -115 -15 -16 -36
-25 -55 -25 -19 0 -40 9 -55 25 -23 22 -25 32 -25 113 0 92 4 105 30 100 11
-2 16 -21 20 -78z m508 58 c2 -12 -6 -21 -22 -28 -25 -9 -26 -12 -26 -94 0
-61 -4 -85 -13 -89 -30 -11 -41 11 -43 89 -2 71 -4 79 -28 97 -22 15 -24 22
-15 33 19 23 143 15 147 -8z m420 6 c25 -17 30 -66 11 -107 -9 -19 -7 -31 5
-54 13 -26 13 -33 1 -49 -13 -18 -14 -18 -33 -1 -11 10 -26 32 -33 48 -14 34
-29 23 -29 -22 0 -27 -15 -40 -37 -32 -9 3 -13 35 -13 112 0 59 3 111 7 114
13 13 99 7 121 -9z m271 7 c23 -15 5 -39 -31 -43 -40 -4 -46 -31 -8 -36 54 -8
63 -52 10 -52 -34 0 -59 -24 -34 -34 8 -3 24 -6 34 -6 9 0 24 -7 31 -16 11
-14 10 -18 -6 -30 -23 -17 -97 -18 -113 -2 -13 13 -18 209 -5 221 9 10 106 8
122 -2z m127 -48 l39 -58 3 53 c3 56 20 75 47 52 22 -18 21 -192 -1 -214 -8
-9 -19 -16 -24 -16 -13 0 -39 28 -57 63 -8 17 -22 37 -29 45 -12 11 -14 6 -14
-37 0 -39 -4 -53 -18 -60 -33 -18 -42 6 -42 109 0 98 7 120 41 120 9 0 34 -26
55 -57z m354 37 c21 -21 28 -84 10 -95 -15 -9 -12 -42 5 -69 13 -20 13 -24 0
-42 -15 -18 -16 -18 -45 16 -17 19 -30 38 -30 42 0 4 -4 8 -10 8 -5 0 -10 -15
-10 -34 0 -35 -17 -50 -40 -36 -15 9 -21 184 -8 213 13 26 101 24 128 -3z
m178 -7 c3 -20 -1 -23 -32 -23 -20 0 -36 -4 -36 -10 0 -5 0 -13 0 -17 -1 -5
14 -10 32 -13 25 -4 34 -11 36 -27 3 -19 -1 -23 -26 -23 -33 0 -64 -26 -41
-34 8 -3 25 -6 39 -8 28 -3 40 -36 18 -49 -15 -10 -79 -12 -102 -3 -13 5 -16
25 -16 113 0 59 3 111 7 115 4 4 32 6 63 4 48 -3 55 -6 58 -25z m171 13 c87
-46 78 -173 -15 -212 -49 -21 -101 -18 -114 5 -14 28 -13 194 2 209 17 17 93
15 127 -2z"/>
<path d="M775 1303 c-141 -31 -206 -59 -286 -120 -104 -79 -167 -204 -176
-353 -17 -265 124 -456 389 -530 87 -24 290 -27 378 -6 187 46 296 135 267
219 -23 69 -89 75 -185 17 -37 -23 -89 -47 -117 -56 -206 -62 -421 11 -498
170 -23 47 -27 67 -27 143 0 48 6 104 13 124 20 59 66 116 121 152 80 53 117
62 251 61 129 0 134 -2 299 -90 45 -24 51 -25 85 -12 47 18 74 67 59 109 -24
69 -153 141 -302 168 -58 11 -231 13 -271 4z"/>
<path d="M2290 890 c-41 -41 -14 -110 42 -110 55 0 81 77 38 112 -29 23 -55
23 -80 -2z"/>
<path d="M3582 890 c-43 -41 -17 -110 41 -110 30 0 67 35 67 62 0 24 -44 68
-68 68 -10 0 -28 -9 -40 -20z"/>
<path d="M2767 903 c-4 -3 -7 -33 -7 -65 0 -54 2 -58 23 -58 47 0 74 64 45
102 -15 19 -51 31 -61 21z"/>
<path d="M3826 895 c-6 -17 17 -31 34 -20 8 5 8 11 -1 21 -15 18 -25 18 -33
-1z"/>
<path d="M4575 901 c-8 -15 3 -31 21 -31 9 0 14 7 12 17 -4 20 -24 28 -33 14z"/>
<path d="M4924 896 c-3 -7 -4 -35 -2 -62 2 -38 7 -50 21 -52 51 -10 79 82 35
112 -28 20 -47 20 -54 2z"/>
</g>
</svg>
